<svg width="1440" height="194" viewBox="0 0 1440 194" fill="none" xmlns="http://www.w3.org/2000/svg">
<path fill-rule="evenodd" clip-rule="evenodd" d="M1461 132.535L1420.82 122.907C1379.43 113.279 1299.07 94.0234 1217.5 100.442C1135.93 106.861 1055.57 138.954 974 161.419C892.428 183.884 812.073 196.721 730.5 193.512C648.928 190.303 568.573 171.047 487 145.372C405.428 119.698 325.073 87.6048 243.5 77.9769C161.928 68.3489 81.5725 81.1862 40.1775 87.6048L3.43323e-05 94.0234V17H40.1775C81.5725 17 161.928 17 243.5 17C325.073 17 405.428 17 487 17C568.573 17 648.928 17 730.5 17C812.073 17 892.428 17 974 17C1055.57 17 1135.93 17 1217.5 17C1299.07 17 1379.43 17 1420.82 17H1461V132.535Z" fill="#0067A2"/>
<path fill-rule="evenodd" clip-rule="evenodd" d="M1455 115.535L1414.82 105.907C1373.43 96.2793 1293.07 77.0234 1211.5 83.442C1129.93 89.8606 1049.57 121.954 968 144.419C886.428 166.884 806.073 179.721 724.5 176.512C642.928 173.303 562.573 154.047 481 128.372C399.428 102.698 319.073 70.6048 237.5 60.9769C155.928 51.3489 75.5725 64.1862 34.1775 70.6048L-5.99997 77.0234V-7.80839e-06H34.1775C75.5725 -7.80839e-06 155.928 -7.80839e-06 237.5 -7.80839e-06C319.073 -7.80839e-06 399.428 -7.80839e-06 481 -7.80839e-06C562.573 -7.80839e-06 642.928 -7.80839e-06 724.5 -7.80839e-06C806.073 -7.80839e-06 886.428 -7.80839e-06 968 -7.80839e-06C1049.57 -7.80839e-06 1129.93 -7.80839e-06 1211.5 -7.80839e-06C1293.07 -7.80839e-06 1373.43 -7.80839e-06 1414.82 -7.80839e-06H1455V115.535Z" fill="#FDD247"/>
</svg>
