<svg width="128" height="128" viewBox="0 0 128 128" fill="none" xmlns="http://www.w3.org/2000/svg">
<g id="QR Code" clip-path="url(#clip0_191_222)">
<path id="Vector" d="M128 0H0V128H128V0Z" fill="white"/>
<g id="Vector_2">
<path d="M11.8621 8H8V11.8621H11.8621V8Z" fill="black"/>
<path d="M15.7241 8H11.8621V11.8621H15.7241V8Z" fill="black"/>
<path d="M19.5862 8H15.7241V11.8621H19.5862V8Z" fill="black"/>
<path d="M23.4483 8H19.5862V11.8621H23.4483V8Z" fill="black"/>
<path d="M27.3103 8H23.4483V11.8621H27.3103V8Z" fill="black"/>
<path d="M31.1724 8H27.3103V11.8621H31.1724V8Z" fill="black"/>
<path d="M35.0345 8H31.1724V11.8621H35.0345V8Z" fill="black"/>
<path d="M42.7586 8H38.8966V11.8621H42.7586V8Z" fill="black"/>
<path d="M54.3448 8H50.4828V11.8621H54.3448V8Z" fill="black"/>
<path d="M58.2069 8H54.3448V11.8621H58.2069V8Z" fill="black"/>
<path d="M65.931 8H62.069V11.8621H65.931V8Z" fill="black"/>
<path d="M73.6552 8H69.7931V11.8621H73.6552V8Z" fill="black"/>
<path d="M81.3793 8H77.5172V11.8621H81.3793V8Z" fill="black"/>
<path d="M89.1034 8H85.2414V11.8621H89.1034V8Z" fill="black"/>
<path d="M96.8276 8H92.9655V11.8621H96.8276V8Z" fill="black"/>
<path d="M100.69 8H96.8276V11.8621H100.69V8Z" fill="black"/>
<path d="M104.552 8H100.69V11.8621H104.552V8Z" fill="black"/>
<path d="M108.414 8H104.552V11.8621H108.414V8Z" fill="black"/>
<path d="M112.276 8H108.414V11.8621H112.276V8Z" fill="black"/>
<path d="M116.138 8H112.276V11.8621H116.138V8Z" fill="black"/>
<path d="M120 8H116.138V11.8621H120V8Z" fill="black"/>
<path d="M11.8621 11.8621H8V15.7241H11.8621V11.8621Z" fill="black"/>
<path d="M35.0345 11.8621H31.1724V15.7241H35.0345V11.8621Z" fill="black"/>
<path d="M54.3448 11.8621H50.4828V15.7241H54.3448V11.8621Z" fill="black"/>
<path d="M62.069 11.8621H58.2069V15.7241H62.069V11.8621Z" fill="black"/>
<path d="M69.7931 11.8621H65.931V15.7241H69.7931V11.8621Z" fill="black"/>
<path d="M77.5172 11.8621H73.6552V15.7241H77.5172V11.8621Z" fill="black"/>
<path d="M96.8276 11.8621H92.9655V15.7241H96.8276V11.8621Z" fill="black"/>
<path d="M120 11.8621H116.138V15.7241H120V11.8621Z" fill="black"/>
<path d="M11.8621 15.7241H8V19.5862H11.8621V15.7241Z" fill="black"/>
<path d="M19.5862 15.7241H15.7241V19.5862H19.5862V15.7241Z" fill="black"/>
<path d="M23.4483 15.7241H19.5862V19.5862H23.4483V15.7241Z" fill="black"/>
<path d="M27.3103 15.7241H23.4483V19.5862H27.3103V15.7241Z" fill="black"/>
<path d="M35.0345 15.7241H31.1724V19.5862H35.0345V15.7241Z" fill="black"/>
<path d="M46.6207 15.7241H42.7586V19.5862H46.6207V15.7241Z" fill="black"/>
<path d="M62.069 15.7241H58.2069V19.5862H62.069V15.7241Z" fill="black"/>
<path d="M69.7931 15.7241H65.931V19.5862H69.7931V15.7241Z" fill="black"/>
<path d="M73.6552 15.7241H69.7931V19.5862H73.6552V15.7241Z" fill="black"/>
<path d="M81.3793 15.7241H77.5172V19.5862H81.3793V15.7241Z" fill="black"/>
<path d="M89.1034 15.7241H85.2414V19.5862H89.1034V15.7241Z" fill="black"/>
<path d="M96.8276 15.7241H92.9655V19.5862H96.8276V15.7241Z" fill="black"/>
<path d="M104.552 15.7241H100.69V19.5862H104.552V15.7241Z" fill="black"/>
<path d="M108.414 15.7241H104.552V19.5862H108.414V15.7241Z" fill="black"/>
<path d="M112.276 15.7241H108.414V19.5862H112.276V15.7241Z" fill="black"/>
<path d="M120 15.7241H116.138V19.5862H120V15.7241Z" fill="black"/>
<path d="M11.8621 19.5862H8V23.4483H11.8621V19.5862Z" fill="black"/>
<path d="M19.5862 19.5862H15.7241V23.4483H19.5862V19.5862Z" fill="black"/>
<path d="M23.4483 19.5862H19.5862V23.4483H23.4483V19.5862Z" fill="black"/>
<path d="M27.3103 19.5862H23.4483V23.4483H27.3103V19.5862Z" fill="black"/>
<path d="M35.0345 19.5862H31.1724V23.4483H35.0345V19.5862Z" fill="black"/>
<path d="M42.7586 19.5862H38.8966V23.4483H42.7586V19.5862Z" fill="black"/>
<path d="M58.2069 19.5862H54.3448V23.4483H58.2069V19.5862Z" fill="black"/>
<path d="M73.6552 19.5862H69.7931V23.4483H73.6552V19.5862Z" fill="black"/>
<path d="M89.1034 19.5862H85.2414V23.4483H89.1034V19.5862Z" fill="black"/>
<path d="M96.8276 19.5862H92.9655V23.4483H96.8276V19.5862Z" fill="black"/>
<path d="M104.552 19.5862H100.69V23.4483H104.552V19.5862Z" fill="black"/>
<path d="M108.414 19.5862H104.552V23.4483H108.414V19.5862Z" fill="black"/>
<path d="M112.276 19.5862H108.414V23.4483H112.276V19.5862Z" fill="black"/>
<path d="M120 19.5862H116.138V23.4483H120V19.5862Z" fill="black"/>
<path d="M11.8621 23.4483H8V27.3103H11.8621V23.4483Z" fill="black"/>
<path d="M19.5862 23.4483H15.7241V27.3103H19.5862V23.4483Z" fill="black"/>
<path d="M23.4483 23.4483H19.5862V27.3103H23.4483V23.4483Z" fill="black"/>
<path d="M27.3103 23.4483H23.4483V27.3103H27.3103V23.4483Z" fill="black"/>
<path d="M35.0345 23.4483H31.1724V27.3103H35.0345V23.4483Z" fill="black"/>
<path d="M50.4828 23.4483H46.6207V27.3103H50.4828V23.4483Z" fill="black"/>
<path d="M54.3448 23.4483H50.4828V27.3103H54.3448V23.4483Z" fill="black"/>
<path d="M58.2069 23.4483H54.3448V27.3103H58.2069V23.4483Z" fill="black"/>
<path d="M62.069 23.4483H58.2069V27.3103H62.069V23.4483Z" fill="black"/>
<path d="M65.931 23.4483H62.069V27.3103H65.931V23.4483Z" fill="black"/>
<path d="M77.5172 23.4483H73.6552V27.3103H77.5172V23.4483Z" fill="black"/>
<path d="M81.3793 23.4483H77.5172V27.3103H81.3793V23.4483Z" fill="black"/>
<path d="M96.8276 23.4483H92.9655V27.3103H96.8276V23.4483Z" fill="black"/>
<path d="M104.552 23.4483H100.69V27.3103H104.552V23.4483Z" fill="black"/>
<path d="M108.414 23.4483H104.552V27.3103H108.414V23.4483Z" fill="black"/>
<path d="M112.276 23.4483H108.414V27.3103H112.276V23.4483Z" fill="black"/>
<path d="M120 23.4483H116.138V27.3103H120V23.4483Z" fill="black"/>
<path d="M11.8621 27.3103H8V31.1724H11.8621V27.3103Z" fill="black"/>
<path d="M35.0345 27.3103H31.1724V31.1724H35.0345V27.3103Z" fill="black"/>
<path d="M42.7586 27.3103H38.8966V31.1724H42.7586V27.3103Z" fill="black"/>
<path d="M58.2069 27.3103H54.3448V31.1724H58.2069V27.3103Z" fill="black"/>
<path d="M62.069 27.3103H58.2069V31.1724H62.069V27.3103Z" fill="black"/>
<path d="M65.931 27.3103H62.069V31.1724H65.931V27.3103Z" fill="black"/>
<path d="M69.7931 27.3103H65.931V31.1724H69.7931V27.3103Z" fill="black"/>
<path d="M81.3793 27.3103H77.5172V31.1724H81.3793V27.3103Z" fill="black"/>
<path d="M85.2414 27.3103H81.3793V31.1724H85.2414V27.3103Z" fill="black"/>
<path d="M89.1034 27.3103H85.2414V31.1724H89.1034V27.3103Z" fill="black"/>
<path d="M96.8276 27.3103H92.9655V31.1724H96.8276V27.3103Z" fill="black"/>
<path d="M120 27.3103H116.138V31.1724H120V27.3103Z" fill="black"/>
<path d="M11.8621 31.1724H8V35.0345H11.8621V31.1724Z" fill="black"/>
<path d="M15.7241 31.1724H11.8621V35.0345H15.7241V31.1724Z" fill="black"/>
<path d="M19.5862 31.1724H15.7241V35.0345H19.5862V31.1724Z" fill="black"/>
<path d="M23.4483 31.1724H19.5862V35.0345H23.4483V31.1724Z" fill="black"/>
<path d="M27.3103 31.1724H23.4483V35.0345H27.3103V31.1724Z" fill="black"/>
<path d="M31.1724 31.1724H27.3103V35.0345H31.1724V31.1724Z" fill="black"/>
<path d="M35.0345 31.1724H31.1724V35.0345H35.0345V31.1724Z" fill="black"/>
<path d="M42.7586 31.1724H38.8966V35.0345H42.7586V31.1724Z" fill="black"/>
<path d="M50.4828 31.1724H46.6207V35.0345H50.4828V31.1724Z" fill="black"/>
<path d="M58.2069 31.1724H54.3448V35.0345H58.2069V31.1724Z" fill="black"/>
<path d="M65.931 31.1724H62.069V35.0345H65.931V31.1724Z" fill="black"/>
<path d="M73.6552 31.1724H69.7931V35.0345H73.6552V31.1724Z" fill="black"/>
<path d="M81.3793 31.1724H77.5172V35.0345H81.3793V31.1724Z" fill="black"/>
<path d="M89.1034 31.1724H85.2414V35.0345H89.1034V31.1724Z" fill="black"/>
<path d="M96.8276 31.1724H92.9655V35.0345H96.8276V31.1724Z" fill="black"/>
<path d="M100.69 31.1724H96.8276V35.0345H100.69V31.1724Z" fill="black"/>
<path d="M104.552 31.1724H100.69V35.0345H104.552V31.1724Z" fill="black"/>
<path d="M108.414 31.1724H104.552V35.0345H108.414V31.1724Z" fill="black"/>
<path d="M112.276 31.1724H108.414V35.0345H112.276V31.1724Z" fill="black"/>
<path d="M116.138 31.1724H112.276V35.0345H116.138V31.1724Z" fill="black"/>
<path d="M120 31.1724H116.138V35.0345H120V31.1724Z" fill="black"/>
<path d="M54.3448 35.0345H50.4828V38.8966H54.3448V35.0345Z" fill="black"/>
<path d="M58.2069 35.0345H54.3448V38.8966H58.2069V35.0345Z" fill="black"/>
<path d="M62.069 35.0345H58.2069V38.8966H62.069V35.0345Z" fill="black"/>
<path d="M69.7931 35.0345H65.931V38.8966H69.7931V35.0345Z" fill="black"/>
<path d="M81.3793 35.0345H77.5172V38.8966H81.3793V35.0345Z" fill="black"/>
<path d="M31.1724 38.8966H27.3103V42.7586H31.1724V38.8966Z" fill="black"/>
<path d="M35.0345 38.8966H31.1724V42.7586H35.0345V38.8966Z" fill="black"/>
<path d="M42.7586 38.8966H38.8966V42.7586H42.7586V38.8966Z" fill="black"/>
<path d="M46.6207 38.8966H42.7586V42.7586H46.6207V38.8966Z" fill="black"/>
<path d="M54.3448 38.8966H50.4828V42.7586H54.3448V38.8966Z" fill="black"/>
<path d="M58.2069 38.8966H54.3448V42.7586H58.2069V38.8966Z" fill="black"/>
<path d="M69.7931 38.8966H65.931V42.7586H69.7931V38.8966Z" fill="black"/>
<path d="M73.6552 38.8966H69.7931V42.7586H73.6552V38.8966Z" fill="black"/>
<path d="M89.1034 38.8966H85.2414V42.7586H89.1034V38.8966Z" fill="black"/>
<path d="M92.9655 38.8966H89.1034V42.7586H92.9655V38.8966Z" fill="black"/>
<path d="M100.69 38.8966H96.8276V42.7586H100.69V38.8966Z" fill="black"/>
<path d="M108.414 38.8966H104.552V42.7586H108.414V38.8966Z" fill="black"/>
<path d="M120 38.8966H116.138V42.7586H120V38.8966Z" fill="black"/>
<path d="M11.8621 42.7586H8V46.6207H11.8621V42.7586Z" fill="black"/>
<path d="M15.7241 42.7586H11.8621V46.6207H15.7241V42.7586Z" fill="black"/>
<path d="M23.4483 42.7586H19.5862V46.6207H23.4483V42.7586Z" fill="black"/>
<path d="M27.3103 42.7586H23.4483V46.6207H27.3103V42.7586Z" fill="black"/>
<path d="M38.8966 42.7586H35.0345V46.6207H38.8966V42.7586Z" fill="black"/>
<path d="M46.6207 42.7586H42.7586V46.6207H46.6207V42.7586Z" fill="black"/>
<path d="M50.4828 42.7586H46.6207V46.6207H50.4828V42.7586Z" fill="black"/>
<path d="M58.2069 42.7586H54.3448V46.6207H58.2069V42.7586Z" fill="black"/>
<path d="M62.069 42.7586H58.2069V46.6207H62.069V42.7586Z" fill="black"/>
<path d="M65.931 42.7586H62.069V46.6207H65.931V42.7586Z" fill="black"/>
<path d="M77.5172 42.7586H73.6552V46.6207H77.5172V42.7586Z" fill="black"/>
<path d="M85.2414 42.7586H81.3793V46.6207H85.2414V42.7586Z" fill="black"/>
<path d="M89.1034 42.7586H85.2414V46.6207H89.1034V42.7586Z" fill="black"/>
<path d="M100.69 42.7586H96.8276V46.6207H100.69V42.7586Z" fill="black"/>
<path d="M108.414 42.7586H104.552V46.6207H108.414V42.7586Z" fill="black"/>
<path d="M112.276 42.7586H108.414V46.6207H112.276V42.7586Z" fill="black"/>
<path d="M120 42.7586H116.138V46.6207H120V42.7586Z" fill="black"/>
<path d="M11.8621 46.6207H8V50.4828H11.8621V46.6207Z" fill="black"/>
<path d="M15.7241 46.6207H11.8621V50.4828H15.7241V46.6207Z" fill="black"/>
<path d="M19.5862 46.6207H15.7241V50.4828H19.5862V46.6207Z" fill="black"/>
<path d="M27.3103 46.6207H23.4483V50.4828H27.3103V46.6207Z" fill="black"/>
<path d="M31.1724 46.6207H27.3103V50.4828H31.1724V46.6207Z" fill="black"/>
<path d="M35.0345 46.6207H31.1724V50.4828H35.0345V46.6207Z" fill="black"/>
<path d="M38.8966 46.6207H35.0345V50.4828H38.8966V46.6207Z" fill="black"/>
<path d="M46.6207 46.6207H42.7586V50.4828H46.6207V46.6207Z" fill="black"/>
<path d="M54.3448 46.6207H50.4828V50.4828H54.3448V46.6207Z" fill="black"/>
<path d="M58.2069 46.6207H54.3448V50.4828H58.2069V46.6207Z" fill="black"/>
<path d="M62.069 46.6207H58.2069V50.4828H62.069V46.6207Z" fill="black"/>
<path d="M81.3793 46.6207H77.5172V50.4828H81.3793V46.6207Z" fill="black"/>
<path d="M85.2414 46.6207H81.3793V50.4828H85.2414V46.6207Z" fill="black"/>
<path d="M92.9655 46.6207H89.1034V50.4828H92.9655V46.6207Z" fill="black"/>
<path d="M96.8276 46.6207H92.9655V50.4828H96.8276V46.6207Z" fill="black"/>
<path d="M108.414 46.6207H104.552V50.4828H108.414V46.6207Z" fill="black"/>
<path d="M112.276 46.6207H108.414V50.4828H112.276V46.6207Z" fill="black"/>
<path d="M116.138 46.6207H112.276V50.4828H116.138V46.6207Z" fill="black"/>
<path d="M15.7241 50.4828H11.8621V54.3448H15.7241V50.4828Z" fill="black"/>
<path d="M19.5862 50.4828H15.7241V54.3448H19.5862V50.4828Z" fill="black"/>
<path d="M23.4483 50.4828H19.5862V54.3448H23.4483V50.4828Z" fill="black"/>
<path d="M31.1724 50.4828H27.3103V54.3448H31.1724V50.4828Z" fill="black"/>
<path d="M38.8966 50.4828H35.0345V54.3448H38.8966V50.4828Z" fill="black"/>
<path d="M46.6207 50.4828H42.7586V54.3448H46.6207V50.4828Z" fill="black"/>
<path d="M89.1034 50.4828H85.2414V54.3448H89.1034V50.4828Z" fill="black"/>
<path d="M92.9655 50.4828H89.1034V54.3448H92.9655V50.4828Z" fill="black"/>
<path d="M100.69 50.4828H96.8276V54.3448H100.69V50.4828Z" fill="black"/>
<path d="M104.552 50.4828H100.69V54.3448H104.552V50.4828Z" fill="black"/>
<path d="M112.276 50.4828H108.414V54.3448H112.276V50.4828Z" fill="black"/>
<path d="M116.138 50.4828H112.276V54.3448H116.138V50.4828Z" fill="black"/>
<path d="M120 50.4828H116.138V54.3448H120V50.4828Z" fill="black"/>
<path d="M11.8621 54.3448H8V58.2069H11.8621V54.3448Z" fill="black"/>
<path d="M15.7241 54.3448H11.8621V58.2069H15.7241V54.3448Z" fill="black"/>
<path d="M23.4483 54.3448H19.5862V58.2069H23.4483V54.3448Z" fill="black"/>
<path d="M35.0345 54.3448H31.1724V58.2069H35.0345V54.3448Z" fill="black"/>
<path d="M42.7586 54.3448H38.8966V58.2069H42.7586V54.3448Z" fill="black"/>
<path d="M54.3448 54.3448H50.4828V58.2069H54.3448V54.3448Z" fill="black"/>
<path d="M65.931 54.3448H62.069V58.2069H65.931V54.3448Z" fill="black"/>
<path d="M81.3793 54.3448H77.5172V58.2069H81.3793V54.3448Z" fill="black"/>
<path d="M85.2414 54.3448H81.3793V58.2069H85.2414V54.3448Z" fill="black"/>
<path d="M92.9655 54.3448H89.1034V58.2069H92.9655V54.3448Z" fill="black"/>
<path d="M96.8276 54.3448H92.9655V58.2069H96.8276V54.3448Z" fill="black"/>
<path d="M100.69 54.3448H96.8276V58.2069H100.69V54.3448Z" fill="black"/>
<path d="M104.552 54.3448H100.69V58.2069H104.552V54.3448Z" fill="black"/>
<path d="M112.276 54.3448H108.414V58.2069H112.276V54.3448Z" fill="black"/>
<path d="M116.138 54.3448H112.276V58.2069H116.138V54.3448Z" fill="black"/>
<path d="M120 54.3448H116.138V58.2069H120V54.3448Z" fill="black"/>
<path d="M11.8621 58.2069H8V62.069H11.8621V58.2069Z" fill="black"/>
<path d="M15.7241 58.2069H11.8621V62.069H15.7241V58.2069Z" fill="black"/>
<path d="M19.5862 58.2069H15.7241V62.069H19.5862V58.2069Z" fill="black"/>
<path d="M23.4483 58.2069H19.5862V62.069H23.4483V58.2069Z" fill="black"/>
<path d="M27.3103 58.2069H23.4483V62.069H27.3103V58.2069Z" fill="black"/>
<path d="M31.1724 58.2069H27.3103V62.069H31.1724V58.2069Z" fill="black"/>
<path d="M69.7931 58.2069H65.931V62.069H69.7931V58.2069Z" fill="black"/>
<path d="M73.6552 58.2069H69.7931V62.069H73.6552V58.2069Z" fill="black"/>
<path d="M81.3793 58.2069H77.5172V62.069H81.3793V58.2069Z" fill="black"/>
<path d="M85.2414 58.2069H81.3793V62.069H85.2414V58.2069Z" fill="black"/>
<path d="M92.9655 58.2069H89.1034V62.069H92.9655V58.2069Z" fill="black"/>
<path d="M96.8276 58.2069H92.9655V62.069H96.8276V58.2069Z" fill="black"/>
<path d="M100.69 58.2069H96.8276V62.069H100.69V58.2069Z" fill="black"/>
<path d="M112.276 58.2069H108.414V62.069H112.276V58.2069Z" fill="black"/>
<path d="M116.138 58.2069H112.276V62.069H116.138V58.2069Z" fill="black"/>
<path d="M15.7241 62.069H11.8621V65.931H15.7241V62.069Z" fill="black"/>
<path d="M23.4483 62.069H19.5862V65.931H23.4483V62.069Z" fill="black"/>
<path d="M27.3103 62.069H23.4483V65.931H27.3103V62.069Z" fill="black"/>
<path d="M31.1724 62.069H27.3103V65.931H31.1724V62.069Z" fill="black"/>
<path d="M35.0345 62.069H31.1724V65.931H35.0345V62.069Z" fill="black"/>
<path d="M38.8966 62.069H35.0345V65.931H38.8966V62.069Z" fill="black"/>
<path d="M46.6207 62.069H42.7586V65.931H46.6207V62.069Z" fill="black"/>
<path d="M54.3448 62.069H50.4828V65.931H54.3448V62.069Z" fill="black"/>
<path d="M69.7931 62.069H65.931V65.931H69.7931V62.069Z" fill="black"/>
<path d="M73.6552 62.069H69.7931V65.931H73.6552V62.069Z" fill="black"/>
<path d="M89.1034 62.069H85.2414V65.931H89.1034V62.069Z" fill="black"/>
<path d="M96.8276 62.069H92.9655V65.931H96.8276V62.069Z" fill="black"/>
<path d="M104.552 62.069H100.69V65.931H104.552V62.069Z" fill="black"/>
<path d="M108.414 62.069H104.552V65.931H108.414V62.069Z" fill="black"/>
<path d="M112.276 62.069H108.414V65.931H112.276V62.069Z" fill="black"/>
<path d="M116.138 62.069H112.276V65.931H116.138V62.069Z" fill="black"/>
<path d="M15.7241 65.931H11.8621V69.7931H15.7241V65.931Z" fill="black"/>
<path d="M23.4483 65.931H19.5862V69.7931H23.4483V65.931Z" fill="black"/>
<path d="M42.7586 65.931H38.8966V69.7931H42.7586V65.931Z" fill="black"/>
<path d="M46.6207 65.931H42.7586V69.7931H46.6207V65.931Z" fill="black"/>
<path d="M54.3448 65.931H50.4828V69.7931H54.3448V65.931Z" fill="black"/>
<path d="M62.069 65.931H58.2069V69.7931H62.069V65.931Z" fill="black"/>
<path d="M65.931 65.931H62.069V69.7931H65.931V65.931Z" fill="black"/>
<path d="M73.6552 65.931H69.7931V69.7931H73.6552V65.931Z" fill="black"/>
<path d="M77.5172 65.931H73.6552V69.7931H77.5172V65.931Z" fill="black"/>
<path d="M116.138 65.931H112.276V69.7931H116.138V65.931Z" fill="black"/>
<path d="M120 65.931H116.138V69.7931H120V65.931Z" fill="black"/>
<path d="M11.8621 69.7931H8V73.6552H11.8621V69.7931Z" fill="black"/>
<path d="M19.5862 69.7931H15.7241V73.6552H19.5862V69.7931Z" fill="black"/>
<path d="M27.3103 69.7931H23.4483V73.6552H27.3103V69.7931Z" fill="black"/>
<path d="M35.0345 69.7931H31.1724V73.6552H35.0345V69.7931Z" fill="black"/>
<path d="M50.4828 69.7931H46.6207V73.6552H50.4828V69.7931Z" fill="black"/>
<path d="M58.2069 69.7931H54.3448V73.6552H58.2069V69.7931Z" fill="black"/>
<path d="M65.931 69.7931H62.069V73.6552H65.931V69.7931Z" fill="black"/>
<path d="M69.7931 69.7931H65.931V73.6552H69.7931V69.7931Z" fill="black"/>
<path d="M85.2414 69.7931H81.3793V73.6552H85.2414V69.7931Z" fill="black"/>
<path d="M89.1034 69.7931H85.2414V73.6552H89.1034V69.7931Z" fill="black"/>
<path d="M92.9655 69.7931H89.1034V73.6552H92.9655V69.7931Z" fill="black"/>
<path d="M96.8276 69.7931H92.9655V73.6552H96.8276V69.7931Z" fill="black"/>
<path d="M104.552 69.7931H100.69V73.6552H104.552V69.7931Z" fill="black"/>
<path d="M116.138 69.7931H112.276V73.6552H116.138V69.7931Z" fill="black"/>
<path d="M11.8621 73.6552H8V77.5172H11.8621V73.6552Z" fill="black"/>
<path d="M19.5862 73.6552H15.7241V77.5172H19.5862V73.6552Z" fill="black"/>
<path d="M27.3103 73.6552H23.4483V77.5172H27.3103V73.6552Z" fill="black"/>
<path d="M38.8966 73.6552H35.0345V77.5172H38.8966V73.6552Z" fill="black"/>
<path d="M50.4828 73.6552H46.6207V77.5172H50.4828V73.6552Z" fill="black"/>
<path d="M58.2069 73.6552H54.3448V77.5172H58.2069V73.6552Z" fill="black"/>
<path d="M62.069 73.6552H58.2069V77.5172H62.069V73.6552Z" fill="black"/>
<path d="M65.931 73.6552H62.069V77.5172H65.931V73.6552Z" fill="black"/>
<path d="M69.7931 73.6552H65.931V77.5172H69.7931V73.6552Z" fill="black"/>
<path d="M73.6552 73.6552H69.7931V77.5172H73.6552V73.6552Z" fill="black"/>
<path d="M85.2414 73.6552H81.3793V77.5172H85.2414V73.6552Z" fill="black"/>
<path d="M96.8276 73.6552H92.9655V77.5172H96.8276V73.6552Z" fill="black"/>
<path d="M104.552 73.6552H100.69V77.5172H104.552V73.6552Z" fill="black"/>
<path d="M108.414 73.6552H104.552V77.5172H108.414V73.6552Z" fill="black"/>
<path d="M112.276 73.6552H108.414V77.5172H112.276V73.6552Z" fill="black"/>
<path d="M116.138 73.6552H112.276V77.5172H116.138V73.6552Z" fill="black"/>
<path d="M120 73.6552H116.138V77.5172H120V73.6552Z" fill="black"/>
<path d="M11.8621 77.5172H8V81.3793H11.8621V77.5172Z" fill="black"/>
<path d="M15.7241 77.5172H11.8621V81.3793H15.7241V77.5172Z" fill="black"/>
<path d="M23.4483 77.5172H19.5862V81.3793H23.4483V77.5172Z" fill="black"/>
<path d="M27.3103 77.5172H23.4483V81.3793H27.3103V77.5172Z" fill="black"/>
<path d="M31.1724 77.5172H27.3103V81.3793H31.1724V77.5172Z" fill="black"/>
<path d="M35.0345 77.5172H31.1724V81.3793H35.0345V77.5172Z" fill="black"/>
<path d="M38.8966 77.5172H35.0345V81.3793H38.8966V77.5172Z" fill="black"/>
<path d="M42.7586 77.5172H38.8966V81.3793H42.7586V77.5172Z" fill="black"/>
<path d="M54.3448 77.5172H50.4828V81.3793H54.3448V77.5172Z" fill="black"/>
<path d="M62.069 77.5172H58.2069V81.3793H62.069V77.5172Z" fill="black"/>
<path d="M69.7931 77.5172H65.931V81.3793H69.7931V77.5172Z" fill="black"/>
<path d="M77.5172 77.5172H73.6552V81.3793H77.5172V77.5172Z" fill="black"/>
<path d="M81.3793 77.5172H77.5172V81.3793H81.3793V77.5172Z" fill="black"/>
<path d="M108.414 77.5172H104.552V81.3793H108.414V77.5172Z" fill="black"/>
<path d="M112.276 77.5172H108.414V81.3793H112.276V77.5172Z" fill="black"/>
<path d="M11.8621 81.3793H8V85.2414H11.8621V81.3793Z" fill="black"/>
<path d="M19.5862 81.3793H15.7241V85.2414H19.5862V81.3793Z" fill="black"/>
<path d="M23.4483 81.3793H19.5862V85.2414H23.4483V81.3793Z" fill="black"/>
<path d="M31.1724 81.3793H27.3103V85.2414H31.1724V81.3793Z" fill="black"/>
<path d="M38.8966 81.3793H35.0345V85.2414H38.8966V81.3793Z" fill="black"/>
<path d="M42.7586 81.3793H38.8966V85.2414H42.7586V81.3793Z" fill="black"/>
<path d="M50.4828 81.3793H46.6207V85.2414H50.4828V81.3793Z" fill="black"/>
<path d="M58.2069 81.3793H54.3448V85.2414H58.2069V81.3793Z" fill="black"/>
<path d="M62.069 81.3793H58.2069V85.2414H62.069V81.3793Z" fill="black"/>
<path d="M85.2414 81.3793H81.3793V85.2414H85.2414V81.3793Z" fill="black"/>
<path d="M89.1034 81.3793H85.2414V85.2414H89.1034V81.3793Z" fill="black"/>
<path d="M92.9655 81.3793H89.1034V85.2414H92.9655V81.3793Z" fill="black"/>
<path d="M116.138 81.3793H112.276V85.2414H116.138V81.3793Z" fill="black"/>
<path d="M15.7241 85.2414H11.8621V89.1034H15.7241V85.2414Z" fill="black"/>
<path d="M31.1724 85.2414H27.3103V89.1034H31.1724V85.2414Z" fill="black"/>
<path d="M35.0345 85.2414H31.1724V89.1034H35.0345V85.2414Z" fill="black"/>
<path d="M38.8966 85.2414H35.0345V89.1034H38.8966V85.2414Z" fill="black"/>
<path d="M54.3448 85.2414H50.4828V89.1034H54.3448V85.2414Z" fill="black"/>
<path d="M58.2069 85.2414H54.3448V89.1034H58.2069V85.2414Z" fill="black"/>
<path d="M62.069 85.2414H58.2069V89.1034H62.069V85.2414Z" fill="black"/>
<path d="M65.931 85.2414H62.069V89.1034H65.931V85.2414Z" fill="black"/>
<path d="M69.7931 85.2414H65.931V89.1034H69.7931V85.2414Z" fill="black"/>
<path d="M73.6552 85.2414H69.7931V89.1034H73.6552V85.2414Z" fill="black"/>
<path d="M85.2414 85.2414H81.3793V89.1034H85.2414V85.2414Z" fill="black"/>
<path d="M89.1034 85.2414H85.2414V89.1034H89.1034V85.2414Z" fill="black"/>
<path d="M92.9655 85.2414H89.1034V89.1034H92.9655V85.2414Z" fill="black"/>
<path d="M96.8276 85.2414H92.9655V89.1034H96.8276V85.2414Z" fill="black"/>
<path d="M100.69 85.2414H96.8276V89.1034H100.69V85.2414Z" fill="black"/>
<path d="M104.552 85.2414H100.69V89.1034H104.552V85.2414Z" fill="black"/>
<path d="M108.414 85.2414H104.552V89.1034H108.414V85.2414Z" fill="black"/>
<path d="M116.138 85.2414H112.276V89.1034H116.138V85.2414Z" fill="black"/>
<path d="M120 85.2414H116.138V89.1034H120V85.2414Z" fill="black"/>
<path d="M42.7586 89.1034H38.8966V92.9655H42.7586V89.1034Z" fill="black"/>
<path d="M46.6207 89.1034H42.7586V92.9655H46.6207V89.1034Z" fill="black"/>
<path d="M50.4828 89.1034H46.6207V92.9655H50.4828V89.1034Z" fill="black"/>
<path d="M54.3448 89.1034H50.4828V92.9655H54.3448V89.1034Z" fill="black"/>
<path d="M58.2069 89.1034H54.3448V92.9655H58.2069V89.1034Z" fill="black"/>
<path d="M62.069 89.1034H58.2069V92.9655H62.069V89.1034Z" fill="black"/>
<path d="M73.6552 89.1034H69.7931V92.9655H73.6552V89.1034Z" fill="black"/>
<path d="M77.5172 89.1034H73.6552V92.9655H77.5172V89.1034Z" fill="black"/>
<path d="M89.1034 89.1034H85.2414V92.9655H89.1034V89.1034Z" fill="black"/>
<path d="M104.552 89.1034H100.69V92.9655H104.552V89.1034Z" fill="black"/>
<path d="M120 89.1034H116.138V92.9655H120V89.1034Z" fill="black"/>
<path d="M11.8621 92.9655H8V96.8276H11.8621V92.9655Z" fill="black"/>
<path d="M15.7241 92.9655H11.8621V96.8276H15.7241V92.9655Z" fill="black"/>
<path d="M19.5862 92.9655H15.7241V96.8276H19.5862V92.9655Z" fill="black"/>
<path d="M23.4483 92.9655H19.5862V96.8276H23.4483V92.9655Z" fill="black"/>
<path d="M27.3103 92.9655H23.4483V96.8276H27.3103V92.9655Z" fill="black"/>
<path d="M31.1724 92.9655H27.3103V96.8276H31.1724V92.9655Z" fill="black"/>
<path d="M35.0345 92.9655H31.1724V96.8276H35.0345V92.9655Z" fill="black"/>
<path d="M46.6207 92.9655H42.7586V96.8276H46.6207V92.9655Z" fill="black"/>
<path d="M54.3448 92.9655H50.4828V96.8276H54.3448V92.9655Z" fill="black"/>
<path d="M58.2069 92.9655H54.3448V96.8276H58.2069V92.9655Z" fill="black"/>
<path d="M65.931 92.9655H62.069V96.8276H65.931V92.9655Z" fill="black"/>
<path d="M77.5172 92.9655H73.6552V96.8276H77.5172V92.9655Z" fill="black"/>
<path d="M81.3793 92.9655H77.5172V96.8276H81.3793V92.9655Z" fill="black"/>
<path d="M89.1034 92.9655H85.2414V96.8276H89.1034V92.9655Z" fill="black"/>
<path d="M96.8276 92.9655H92.9655V96.8276H96.8276V92.9655Z" fill="black"/>
<path d="M104.552 92.9655H100.69V96.8276H104.552V92.9655Z" fill="black"/>
<path d="M108.414 92.9655H104.552V96.8276H108.414V92.9655Z" fill="black"/>
<path d="M11.8621 96.8276H8V100.69H11.8621V96.8276Z" fill="black"/>
<path d="M35.0345 96.8276H31.1724V100.69H35.0345V96.8276Z" fill="black"/>
<path d="M42.7586 96.8276H38.8966V100.69H42.7586V96.8276Z" fill="black"/>
<path d="M54.3448 96.8276H50.4828V100.69H54.3448V96.8276Z" fill="black"/>
<path d="M62.069 96.8276H58.2069V100.69H62.069V96.8276Z" fill="black"/>
<path d="M73.6552 96.8276H69.7931V100.69H73.6552V96.8276Z" fill="black"/>
<path d="M77.5172 96.8276H73.6552V100.69H77.5172V96.8276Z" fill="black"/>
<path d="M81.3793 96.8276H77.5172V100.69H81.3793V96.8276Z" fill="black"/>
<path d="M89.1034 96.8276H85.2414V100.69H89.1034V96.8276Z" fill="black"/>
<path d="M104.552 96.8276H100.69V100.69H104.552V96.8276Z" fill="black"/>
<path d="M120 96.8276H116.138V100.69H120V96.8276Z" fill="black"/>
<path d="M11.8621 100.69H8V104.552H11.8621V100.69Z" fill="black"/>
<path d="M19.5862 100.69H15.7241V104.552H19.5862V100.69Z" fill="black"/>
<path d="M23.4483 100.69H19.5862V104.552H23.4483V100.69Z" fill="black"/>
<path d="M27.3103 100.69H23.4483V104.552H27.3103V100.69Z" fill="black"/>
<path d="M35.0345 100.69H31.1724V104.552H35.0345V100.69Z" fill="black"/>
<path d="M54.3448 100.69H50.4828V104.552H54.3448V100.69Z" fill="black"/>
<path d="M89.1034 100.69H85.2414V104.552H89.1034V100.69Z" fill="black"/>
<path d="M92.9655 100.69H89.1034V104.552H92.9655V100.69Z" fill="black"/>
<path d="M96.8276 100.69H92.9655V104.552H96.8276V100.69Z" fill="black"/>
<path d="M100.69 100.69H96.8276V104.552H100.69V100.69Z" fill="black"/>
<path d="M104.552 100.69H100.69V104.552H104.552V100.69Z" fill="black"/>
<path d="M108.414 100.69H104.552V104.552H108.414V100.69Z" fill="black"/>
<path d="M112.276 100.69H108.414V104.552H112.276V100.69Z" fill="black"/>
<path d="M116.138 100.69H112.276V104.552H116.138V100.69Z" fill="black"/>
<path d="M120 100.69H116.138V104.552H120V100.69Z" fill="black"/>
<path d="M11.8621 104.552H8V108.414H11.8621V104.552Z" fill="black"/>
<path d="M19.5862 104.552H15.7241V108.414H19.5862V104.552Z" fill="black"/>
<path d="M23.4483 104.552H19.5862V108.414H23.4483V104.552Z" fill="black"/>
<path d="M27.3103 104.552H23.4483V108.414H27.3103V104.552Z" fill="black"/>
<path d="M35.0345 104.552H31.1724V108.414H35.0345V104.552Z" fill="black"/>
<path d="M46.6207 104.552H42.7586V108.414H46.6207V104.552Z" fill="black"/>
<path d="M50.4828 104.552H46.6207V108.414H50.4828V104.552Z" fill="black"/>
<path d="M58.2069 104.552H54.3448V108.414H58.2069V104.552Z" fill="black"/>
<path d="M65.931 104.552H62.069V108.414H65.931V104.552Z" fill="black"/>
<path d="M69.7931 104.552H65.931V108.414H69.7931V104.552Z" fill="black"/>
<path d="M77.5172 104.552H73.6552V108.414H77.5172V104.552Z" fill="black"/>
<path d="M100.69 104.552H96.8276V108.414H100.69V104.552Z" fill="black"/>
<path d="M108.414 104.552H104.552V108.414H108.414V104.552Z" fill="black"/>
<path d="M112.276 104.552H108.414V108.414H112.276V104.552Z" fill="black"/>
<path d="M11.8621 108.414H8V112.276H11.8621V108.414Z" fill="black"/>
<path d="M19.5862 108.414H15.7241V112.276H19.5862V108.414Z" fill="black"/>
<path d="M23.4483 108.414H19.5862V112.276H23.4483V108.414Z" fill="black"/>
<path d="M27.3103 108.414H23.4483V112.276H27.3103V108.414Z" fill="black"/>
<path d="M35.0345 108.414H31.1724V112.276H35.0345V108.414Z" fill="black"/>
<path d="M50.4828 108.414H46.6207V112.276H50.4828V108.414Z" fill="black"/>
<path d="M54.3448 108.414H50.4828V112.276H54.3448V108.414Z" fill="black"/>
<path d="M65.931 108.414H62.069V112.276H65.931V108.414Z" fill="black"/>
<path d="M89.1034 108.414H85.2414V112.276H89.1034V108.414Z" fill="black"/>
<path d="M92.9655 108.414H89.1034V112.276H92.9655V108.414Z" fill="black"/>
<path d="M100.69 108.414H96.8276V112.276H100.69V108.414Z" fill="black"/>
<path d="M108.414 108.414H104.552V112.276H108.414V108.414Z" fill="black"/>
<path d="M112.276 108.414H108.414V112.276H112.276V108.414Z" fill="black"/>
<path d="M11.8621 112.276H8V116.138H11.8621V112.276Z" fill="black"/>
<path d="M35.0345 112.276H31.1724V116.138H35.0345V112.276Z" fill="black"/>
<path d="M50.4828 112.276H46.6207V116.138H50.4828V112.276Z" fill="black"/>
<path d="M54.3448 112.276H50.4828V116.138H54.3448V112.276Z" fill="black"/>
<path d="M58.2069 112.276H54.3448V116.138H58.2069V112.276Z" fill="black"/>
<path d="M65.931 112.276H62.069V116.138H65.931V112.276Z" fill="black"/>
<path d="M69.7931 112.276H65.931V116.138H69.7931V112.276Z" fill="black"/>
<path d="M73.6552 112.276H69.7931V116.138H73.6552V112.276Z" fill="black"/>
<path d="M81.3793 112.276H77.5172V116.138H81.3793V112.276Z" fill="black"/>
<path d="M85.2414 112.276H81.3793V116.138H85.2414V112.276Z" fill="black"/>
<path d="M92.9655 112.276H89.1034V116.138H92.9655V112.276Z" fill="black"/>
<path d="M96.8276 112.276H92.9655V116.138H96.8276V112.276Z" fill="black"/>
<path d="M100.69 112.276H96.8276V116.138H100.69V112.276Z" fill="black"/>
<path d="M108.414 112.276H104.552V116.138H108.414V112.276Z" fill="black"/>
<path d="M116.138 112.276H112.276V116.138H116.138V112.276Z" fill="black"/>
<path d="M120 112.276H116.138V116.138H120V112.276Z" fill="black"/>
<path d="M11.8621 116.138H8V120H11.8621V116.138Z" fill="black"/>
<path d="M15.7241 116.138H11.8621V120H15.7241V116.138Z" fill="black"/>
<path d="M19.5862 116.138H15.7241V120H19.5862V116.138Z" fill="black"/>
<path d="M23.4483 116.138H19.5862V120H23.4483V116.138Z" fill="black"/>
<path d="M27.3103 116.138H23.4483V120H27.3103V116.138Z" fill="black"/>
<path d="M31.1724 116.138H27.3103V120H31.1724V116.138Z" fill="black"/>
<path d="M35.0345 116.138H31.1724V120H35.0345V116.138Z" fill="black"/>
<path d="M46.6207 116.138H42.7586V120H46.6207V116.138Z" fill="black"/>
<path d="M58.2069 116.138H54.3448V120H58.2069V116.138Z" fill="black"/>
<path d="M65.931 116.138H62.069V120H65.931V116.138Z" fill="black"/>
<path d="M77.5172 116.138H73.6552V120H77.5172V116.138Z" fill="black"/>
<path d="M81.3793 116.138H77.5172V120H81.3793V116.138Z" fill="black"/>
<path d="M85.2414 116.138H81.3793V120H85.2414V116.138Z" fill="black"/>
<path d="M92.9655 116.138H89.1034V120H92.9655V116.138Z" fill="black"/>
<path d="M104.552 116.138H100.69V120H104.552V116.138Z" fill="black"/>
<path d="M112.276 116.138H108.414V120H112.276V116.138Z" fill="black"/>
</g>
</g>
<defs>
<clipPath id="clip0_191_222">
<rect width="128" height="128" fill="white"/>
</clipPath>
</defs>
</svg>
