<svg width="100" height="101" viewBox="0 0 100 101" fill="none" xmlns="http://www.w3.org/2000/svg">
<path d="M50 0.552246C22.5 0.552246 0 23.0522 0 50.5522C0 78.0522 22.5 100.552 50 100.552C77.5 100.552 100 78.0522 100 50.5522C100 23.0522 77.75 0.552246 50 0.552246ZM73.0042 72.8022C72.0042 74.2981 70.2542 74.8022 68.75 73.8022C57 66.5522 42.25 65.0481 24.7458 69.0481C23.0042 69.5564 21.5 68.3022 21 66.8022C20.5 65.0481 21.75 63.5522 23.25 63.0522C42.25 58.7981 58.75 60.5522 71.75 68.5522C73.5 69.3022 73.7458 71.2981 73.0042 72.8022ZM79.0042 59.0522C77.75 60.8022 75.5 61.5522 73.7458 60.3022C60.25 52.0522 39.75 49.5522 24 54.5522C22.0042 55.0522 19.75 54.0522 19.25 52.0522C18.75 50.0522 19.75 47.7981 21.75 47.2981C40 41.8022 62.5 44.5564 78 54.0522C79.5042 54.8064 80.25 57.3022 79.0042 59.0522ZM79.5042 45.0522C63.5 35.5522 36.75 34.5522 21.5 39.3064C19 40.0522 16.5 38.5522 15.75 36.3022C15 33.7981 16.5 31.3022 18.75 30.5481C36.5 25.2981 65.75 26.2981 84.2542 37.3022C86.5 38.5522 87.25 41.5522 86 43.8022C84.7542 45.5564 81.75 46.2981 79.5042 45.0522Z" fill="#1DB954"/>
</svg>
