<svg width="100" height="116" viewBox="0 0 100 116" fill="none" xmlns="http://www.w3.org/2000/svg">
<path d="M52.52 0.0959191C58.8027 0 65.0375 0.0479596 71.2722 0C71.6559 7.33781 74.2937 14.8195 79.6652 19.9991C85.0366 25.3226 92.6142 27.7686 100 28.5839V47.9116C93.0938 47.6718 86.1397 46.233 79.857 43.2595C77.1233 42.0126 74.5814 40.4299 72.0875 38.7993C72.0396 52.8035 72.1355 66.8077 71.9916 80.7639C71.6079 87.4782 69.4018 94.1446 65.5171 99.66C59.2344 108.868 48.3476 114.863 37.173 115.055C30.3148 115.439 23.4565 113.568 17.6055 110.115C7.91765 104.408 1.10739 93.9528 0.100244 82.7302C0.00432448 80.3323 -0.043635 77.9343 0.0522841 75.5843C0.915556 66.4719 5.42375 57.7433 12.4259 51.7963C20.3871 44.8901 31.5138 41.5809 41.921 43.5473C42.0169 50.6453 41.7291 57.7433 41.7291 64.8413C36.9811 63.3066 31.4178 63.7383 27.2454 66.6158C24.2239 68.5822 21.9218 71.6036 20.7229 75.0088C19.7157 77.4547 20.0035 80.1404 20.0514 82.7302C21.2025 90.5956 28.7801 97.214 36.8373 96.4946C42.2087 96.4467 47.3404 93.3293 50.1221 88.7731C51.0333 87.1905 52.0405 85.5599 52.0884 83.6894C52.568 75.1047 52.3762 66.5679 52.4241 57.9831C52.4721 38.6554 52.3762 19.3757 52.52 0.0959191Z" fill="black"/>
</svg>
