<svg width="1440" height="187" viewBox="0 0 1440 187" fill="none" xmlns="http://www.w3.org/2000/svg">
<path fill-rule="evenodd" clip-rule="evenodd" d="M-5 62.3333L34.7375 57.1389C75.6792 51.9444 155.154 41.5556 235.833 57.1389C316.512 72.7222 395.987 114.278 476.667 109.083C557.346 103.889 636.821 51.9444 717.5 51.9444C798.179 51.9444 877.654 103.889 958.333 109.083C1039.01 114.278 1118.49 72.7222 1199.17 46.75C1279.85 20.7778 1359.32 10.3889 1400.26 5.19444L1440 0V187H1400.26C1359.32 187 1279.85 187 1199.17 187C1118.49 187 1039.01 187 958.333 187C877.654 187 798.179 187 717.5 187C636.821 187 557.346 187 476.667 187C395.987 187 316.512 187 235.833 187C155.154 187 75.6792 187 34.7375 187H-5V62.3333Z" fill="#FDD247"/>
</svg>
