<svg width="100" height="71" viewBox="0 0 100 71" fill="none" xmlns="http://www.w3.org/2000/svg">
<path d="M97.9083 11.3274C97.3434 9.19939 96.2293 7.25714 94.6775 5.69517C93.1258 4.1332 91.1909 3.00633 89.0667 2.42741C81.2708 0.323243 50 0.323242 50 0.323242C50 0.323242 18.7292 0.323243 10.9292 2.42741C8.80587 3.00735 6.87206 4.13463 5.32116 5.6965C3.77026 7.25837 2.65663 9.20008 2.09167 11.3274C0 19.1774 0 35.5524 0 35.5524C0 35.5524 0 51.9274 2.09167 59.7774C2.65661 61.9054 3.77073 63.8477 5.32246 65.4097C6.8742 66.9716 8.80907 68.0985 10.9333 68.6774C18.7292 70.7816 50 70.7816 50 70.7816C50 70.7816 81.2708 70.7816 89.0708 68.6774C91.1953 68.0989 93.1304 66.9721 94.6822 65.4101C96.2339 63.8481 97.3479 61.9056 97.9125 59.7774C100 51.9274 100 35.5524 100 35.5524C100 35.5524 100 19.1774 97.9083 11.3274ZM39.7708 50.4191V20.6857L65.9083 35.5524L39.7708 50.4191Z" fill="#FF0000"/>
</svg>
